<svg xmlns="http://www.w3.org/2000/svg" viewBox="0 0 16 16"><path d="M8 1.75C7.93 1.75 7.86 1.78 7.81 1.84L4.54 5.59C4.4 5.75 4.52 6 4.73 6L7 6 7 10 9 10 9 6 11.27 6C11.48 6 11.6 5.75 11.46 5.59L8.19 1.84C8.14 1.78 8.07 1.75 8 1.75zM1.5 9A0.5 0.5 0 0 0 1 9.5L1 13.5A0.5 0.5 0 0 0 1.5 14L14.5 14A0.5 0.5 0 0 0 15 13.5L15 9.5A0.5 0.5 0 0 0 14.5 9L10 9 10 10 14 10 14 13 2 13 2 10 6 10 6 9 1.5 9z"/><path d="M11.52 7.19H11.26C10.41 7.19 9.69 7.89 9.69 8.72V9.44c0 0.38 0.17 0.8 0.45 1.16a1.81 1.81 0 0 1-0.03 0.17l-0.17 0.07C9.69 10.96 9.43 11.07 9.1 11.17l-0.07 0.02-0.06 0.03c-0.12 0.07-0.78 0.51-0.78 1.78v0.58H14.58V13c0-1.32-0.68-1.73-0.81-1.79l-0.05-0.02-0.05-0.02C13.34 11.07 13.08 10.96 12.82 10.84l-0.15-0.07a2.22 2.22 0 0 1-0.03-0.2c0.27-0.35 0.44-0.77 0.44-1.14V8.72C13.08 7.86 12.39 7.19 11.52 7.19Z" style="fill:#666;stroke-width:0.6"/><path d="m13.51 11.73c-0.55-0.16-0.94-0.37-1.32-0.52-0.04-0.12-0.12-0.33-0.15-0.82 0.26-0.27 0.45-0.64 0.45-0.94V8.72c0-0.52-0.42-0.95-0.98-0.95h-0.26c-0.52 0-0.98 0.42-0.98 0.95V9.44c0 0.3 0.19 0.68 0.46 0.95-0.01 0.48-0.1 0.69-0.14 0.81-0.39 0.15-0.77 0.37-1.33 0.52 0 0-0.46 0.26-0.49 1.27h5.23C13.97 11.95 13.51 11.73 13.51 11.73Z" style="fill:#ffc857;stroke-width:0.6"/><path d="m13.51 11.73c-0.55-0.16-0.94-0.37-1.32-0.52 0.02 0.08 0.03 0.11-0.02 0.16-0.39 0.42-1.21 0.39-1.57 0-0.05-0.05-0.04-0.09-0.01-0.16-0.39 0.15-0.77 0.37-1.33 0.52 0 0-0.46 0.26-0.49 1.27H14c-0.03-1.05-0.49-1.27-0.49-1.27z" style="fill:#59f;stroke-width:0.6"/></svg>